<?xml version="1.0" encoding="utf-8"?>
<!-- Generator: Adobe Illustrator 16.0.0, SVG Export Plug-In . SVG Version: 6.00 Build 0)  -->
<svg version="1.2" baseProfile="tiny" id="Calque_1"
	 xmlns="http://www.w3.org/2000/svg" xmlns:xlink="http://www.w3.org/1999/xlink" x="0px" y="0px" width="355.108px"
	 height="123.783px" viewBox="0 0 355.108 123.783" xml:space="preserve">
<g>
	<path d="M62.599,21.261c-0.819-0.564-1.801-1.015-2.947-1.353c-1.146-0.337-2.333-0.506-3.561-0.506
		c-1.926,0-3.627,0.429-5.105,1.287c-1.478,0.858-2.618,2.067-3.42,3.627c-0.803,1.561-1.204,3.348-1.204,5.362
		c0,2.28,0.611,4.079,1.834,5.396c1.223,1.317,2.891,1.976,5.005,1.976c1.195,0,2.308-0.188,3.337-0.564l1.229-5.877h-5.18
		l0.73-3.387h9.28l-2.457,11.521c-2.28,1.195-4.771,1.793-7.471,1.793c-2.125,0-3.993-0.44-5.603-1.32s-2.845-2.125-3.702-3.735
		c-0.858-1.61-1.287-3.45-1.287-5.52c0-2.711,0.586-5.146,1.76-7.305c1.173-2.158,2.836-3.824,4.989-4.997
		c2.152-1.173,4.673-1.76,7.562-1.76c2.379,0,4.715,0.487,7.006,1.461L62.599,21.261z"/>
	<path d="M63.063,48.089c-0.774,0-1.511-0.116-2.208-0.349l0.697-3.221c0.432,0.266,0.985,0.398,1.66,0.398
		c1.395,0,2.579-0.747,3.553-2.241l1.71-2.656l-3.204-16.917h4.167l1.594,11.704l0.066,1.079l-0.033,0.697h0.083
		c0.276-0.708,0.542-1.295,0.797-1.76l6.358-11.721h4.267L71.132,42.262c-1.262,2.114-2.515,3.613-3.76,4.499
		C66.126,47.646,64.69,48.089,63.063,48.089z"/>
	<path d="M109.465,27.271c0,0.554-0.172,1.644-0.515,3.271l-2.042,9.563h-3.984l2.075-9.828c0.221-1.184,0.332-1.909,0.332-2.175
		c0-1.494-0.659-2.241-1.976-2.241c-1.019,0-2.098,0.623-3.237,1.868c-1.14,1.245-1.859,2.582-2.158,4.009l-1.76,8.367h-4.018
		l2.092-9.828c0.221-1.184,0.332-1.909,0.332-2.175c0-1.494-0.659-2.241-1.976-2.241c-0.675,0-1.4,0.293-2.175,0.88
		c-0.775,0.587-1.461,1.348-2.059,2.283c-0.598,0.936-0.985,1.846-1.162,2.731l-1.793,8.351h-4.034l2.573-11.887
		c0.398-1.903,0.691-3.608,0.88-5.113h3.918c-0.089,0.941-0.26,2.158-0.515,3.652h0.066c0.874-1.284,1.854-2.283,2.938-2.997
		c1.084-0.714,2.164-1.071,3.237-1.071c2.601,0,3.995,1.384,4.184,4.15c0.93-1.35,1.956-2.379,3.08-3.088
		c1.123-0.708,2.271-1.063,3.445-1.063c1.417,0,2.479,0.396,3.188,1.187C109.11,24.667,109.465,25.799,109.465,27.271z"/>
	<path d="M129.171,27.254c0,0.564-0.172,1.66-0.515,3.287l-2.025,9.563h-4.018l2.059-9.828c0.221-1.184,0.332-1.909,0.332-2.175
		c0-0.664-0.174-1.204-0.523-1.619s-0.844-0.623-1.486-0.623c-0.708,0-1.464,0.28-2.266,0.838c-0.803,0.559-1.514,1.309-2.133,2.25
		c-0.62,0.941-1.029,1.876-1.229,2.806l-1.776,8.351h-4.051l2.573-11.887c0.398-1.903,0.691-3.608,0.88-5.113h3.918
		c-0.089,0.941-0.26,2.158-0.515,3.652h0.066c0.885-1.295,1.895-2.296,3.03-3.005c1.134-0.708,2.26-1.063,3.378-1.063
		c1.372,0,2.432,0.393,3.179,1.179C128.797,24.653,129.171,25.782,129.171,27.254z"/>
	<path d="M146.188,40.104h-4.067c0-0.276,0.033-0.783,0.1-1.519c0.066-0.736,0.133-1.303,0.199-1.702h-0.066
		c-0.697,1.019-1.298,1.757-1.802,2.216c-0.504,0.459-1.048,0.811-1.635,1.054c-0.587,0.243-1.251,0.365-1.992,0.365
		c-1.616,0-2.872-0.57-3.769-1.71c-0.896-1.14-1.345-2.717-1.345-4.731c0-2.059,0.484-4.018,1.453-5.877
		c0.968-1.859,2.263-3.243,3.885-4.15c1.621-0.907,3.511-1.361,5.669-1.361c1.782,0,3.901,0.266,6.358,0.797l-2.341,11.09
		c-0.166,0.786-0.315,1.751-0.448,2.897S146.188,39.495,146.188,40.104z M144.66,25.942c-0.687-0.166-1.444-0.249-2.274-0.249
		c-1.262,0-2.374,0.33-3.337,0.988c-0.963,0.659-1.738,1.658-2.324,2.997c-0.587,1.339-0.88,2.739-0.88,4.2
		c0,1.107,0.213,1.962,0.639,2.565c0.426,0.604,1.048,0.905,1.868,0.905c1.195,0,2.271-0.625,3.229-1.876
		c0.957-1.25,1.657-2.905,2.1-4.964L144.66,25.942z"/>
	<path d="M162.756,26.723c-0.487-0.288-1.065-0.537-1.735-0.747c-0.669-0.21-1.336-0.315-2-0.315c-0.93,0-1.624,0.197-2.084,0.589
		c-0.459,0.393-0.688,0.899-0.688,1.519c0,0.554,0.188,1.013,0.564,1.378s0.919,0.742,1.627,1.129
		c1.438,0.808,2.421,1.577,2.946,2.308c0.526,0.73,0.789,1.588,0.789,2.573c0,1.074-0.279,2.009-0.838,2.806
		c-0.56,0.797-1.376,1.422-2.449,1.876s-2.385,0.681-3.935,0.681c-0.841,0-1.732-0.094-2.673-0.282s-1.66-0.415-2.158-0.681
		l0.664-3.287c0.608,0.365,1.331,0.675,2.166,0.93c0.836,0.255,1.642,0.382,2.416,0.382c0.974,0,1.699-0.183,2.175-0.548
		s0.714-0.869,0.714-1.511c0-0.498-0.163-0.93-0.49-1.295c-0.326-0.365-0.96-0.802-1.9-1.312c-1.251-0.675-2.161-1.389-2.73-2.142
		c-0.57-0.752-0.855-1.638-0.855-2.656c0-1.04,0.269-1.973,0.805-2.797c0.537-0.824,1.313-1.469,2.324-1.934
		c1.014-0.465,2.217-0.697,3.611-0.697c0.83,0,1.641,0.075,2.432,0.224c0.792,0.149,1.459,0.335,2.001,0.556L162.756,26.723z"/>
	<path d="M176.303,26.191h-4.134l-1.627,7.687c-0.199,0.963-0.299,1.61-0.299,1.942c0,0.509,0.116,0.877,0.349,1.104
		c0.232,0.227,0.614,0.34,1.146,0.34c0.509,0,1.284-0.199,2.324-0.598l-0.664,3.138c-1.106,0.432-2.202,0.647-3.287,0.647
		c-2.623,0-3.935-1.278-3.935-3.835c0-0.642,0.116-1.483,0.349-2.523l1.66-7.902h-2.723l0.73-3.088h2.64l0.88-4.067l4.217-1.112
		l-1.079,5.18h4.167L176.303,26.191z"/>
	<path d="M181.217,40.386c-1.218,0-2.145-0.307-2.781-0.921c-0.636-0.614-0.954-1.491-0.954-2.631c0-0.575,0.061-1.14,0.183-1.693
		l2.474-12.036h4.034l-2.258,10.708c-0.232,1.107-0.349,1.821-0.349,2.142c0,0.841,0.481,1.262,1.444,1.262
		c0.564,0,1.068-0.088,1.511-0.266l-0.631,3.055C182.938,40.258,182.047,40.386,181.217,40.386z M185.732,17.343
		c0,0.664-0.238,1.215-0.714,1.652c-0.476,0.438-1.057,0.656-1.743,0.656c-0.664,0-1.226-0.199-1.686-0.598
		c-0.459-0.398-0.688-0.924-0.688-1.577c0-0.675,0.243-1.223,0.73-1.644c0.487-0.42,1.073-0.631,1.76-0.631
		c0.642,0,1.192,0.202,1.651,0.606C185.503,16.211,185.732,16.723,185.732,17.343z"/>
	<path d="M199.13,47.956h-4.001l1.577-7.487c0.232-1.051,0.498-2.152,0.797-3.304h-0.066c-1.505,2.236-3.287,3.354-5.346,3.354
		c-1.616,0-2.878-0.562-3.785-1.685c-0.907-1.123-1.361-2.708-1.361-4.756c0-2.103,0.484-4.073,1.452-5.91
		c0.969-1.837,2.264-3.209,3.885-4.117c1.622-0.907,3.473-1.361,5.554-1.361c2.103,0,4.256,0.305,6.458,0.913L199.13,47.956z
		 M199.777,26.009c-0.764-0.21-1.533-0.315-2.308-0.315c-1.229,0-2.324,0.335-3.287,1.004c-0.963,0.67-1.737,1.668-2.324,2.997
		s-0.88,2.701-0.88,4.117c0,1.173,0.219,2.056,0.656,2.648c0.437,0.592,1.064,0.888,1.884,0.888c1.173,0,2.235-0.606,3.188-1.818
		s1.649-2.831,2.092-4.856L199.777,26.009z"/>
	<path d="M220.712,40.104h-3.984l0.515-3.603h-0.066c-0.896,1.262-1.898,2.247-3.005,2.955s-2.235,1.063-3.387,1.063
		c-1.405,0-2.479-0.401-3.221-1.204s-1.112-1.928-1.112-3.378c0-0.542,0.172-1.627,0.515-3.254l2.025-9.579h4.018l-2.075,9.778
		c-0.232,1.24-0.349,1.981-0.349,2.225c0,0.664,0.166,1.19,0.498,1.577c0.332,0.388,0.83,0.581,1.494,0.581
		c0.764,0,1.547-0.282,2.349-0.847c0.803-0.564,1.514-1.325,2.134-2.283c0.62-0.957,1.029-1.912,1.229-2.864l1.743-8.168h4.018
		l-2.44,11.422C221.177,36.584,220.878,38.443,220.712,40.104z"/>
	<path d="M241.414,27.287c0,2.048-0.952,3.556-2.855,4.524c-1.903,0.969-4.792,1.475-8.666,1.519l-0.033,0.183v0.332
		c0,1.151,0.343,2.045,1.029,2.681c0.687,0.637,1.644,0.955,2.872,0.955c0.841,0,1.74-0.152,2.698-0.457
		c0.957-0.304,1.834-0.694,2.631-1.17l-0.664,3.304c-1.671,0.908-3.514,1.361-5.528,1.361c-2.202,0-3.921-0.614-5.155-1.843
		c-1.233-1.229-1.851-2.96-1.851-5.196c0-1.926,0.421-3.727,1.262-5.404s2.015-2.994,3.52-3.951
		c1.505-0.957,3.154-1.436,4.947-1.436c1.782,0,3.193,0.421,4.233,1.262C240.894,24.792,241.414,25.904,241.414,27.287z
		 M237.529,27.387c0-0.553-0.202-0.993-0.605-1.32c-0.404-0.326-0.961-0.49-1.669-0.49c-1.173,0-2.235,0.481-3.188,1.444
		s-1.577,2.147-1.876,3.553C235.083,30.574,237.529,29.512,237.529,27.387z"/>
</g>
<g>
	<path d="M23.152,104.709c-1.712,0.624-3.576,0.936-5.592,0.936c-3.552,0-6.68-0.784-9.384-2.352
		c-2.705-1.568-4.784-3.68-6.24-6.336c-1.457-2.656-2.184-5.583-2.184-8.784c0-3.424,0.736-6.504,2.208-9.24
		c1.472-2.736,3.511-4.879,6.12-6.432c2.607-1.552,5.56-2.328,8.856-2.328c1.951,0,3.775,0.256,5.472,0.768
		c1.696,0.512,3.216,1.184,4.56,2.016l-1.872,4.368c-2.656-1.792-5.328-2.688-8.016-2.688c-2.24,0-4.313,0.592-6.216,1.776
		c-1.904,1.185-3.424,2.792-4.56,4.824C5.167,83.269,4.6,85.501,4.6,87.933c0,2.496,0.52,4.752,1.56,6.768
		c1.039,2.016,2.527,3.593,4.464,4.728c1.936,1.136,4.167,1.704,6.696,1.704c3.104,0,5.808-0.88,8.112-2.64l1.968,4.176
		C26.279,103.405,24.863,104.085,23.152,104.709z"/>
	<path d="M40.624,87.213c0.943-0.832,1.944-1.472,3-1.92c1.056-0.448,1.984-0.688,2.784-0.72l-0.192,4.464
		c-1.44-0.063-2.744,0.225-3.912,0.864c-1.168,0.64-2.08,1.528-2.736,2.664c-0.656,1.136-0.984,2.344-0.984,3.624v9.072H34.12
		V85.389h3.984l0.336,4.704C38.951,89.005,39.679,88.045,40.624,87.213z"/>
	<path d="M72.088,85.389v19.872h-4.464v-3.264c-0.705,0.929-1.728,1.784-3.072,2.568c-1.344,0.784-2.864,1.176-4.56,1.176
		c-1.888,0-3.592-0.408-5.112-1.224c-1.521-0.816-2.72-2.008-3.6-3.576c-0.88-1.568-1.32-3.439-1.32-5.616
		c0-2.176,0.456-4.072,1.368-5.688c0.912-1.615,2.144-2.863,3.696-3.744c1.552-0.879,3.271-1.32,5.16-1.32
		c1.696,0,3.168,0.368,4.416,1.104c1.248,0.736,2.256,1.696,3.024,2.88l0.336-3.168H72.088z M65.392,100.677
		c1.168-0.912,1.912-2.152,2.232-3.72v-3.936c-0.384-1.408-1.185-2.551-2.4-3.432c-1.216-0.88-2.608-1.32-4.176-1.32
		c-1.184,0-2.28,0.288-3.288,0.864s-1.808,1.384-2.4,2.424c-0.593,1.041-0.888,2.216-0.888,3.528c0,1.28,0.304,2.448,0.912,3.504
		c0.607,1.056,1.423,1.896,2.448,2.52c1.023,0.624,2.143,0.936,3.36,0.936C62.824,102.045,64.223,101.589,65.392,100.677z"/>
	<path d="M98.775,85.389l-10.608,20.448h-0.24l-11.04-20.448h5.328l6,12.672l5.568-12.672H98.775z"/>
	<path d="M123.159,85.389v19.872h-4.464v-3.264c-0.705,0.929-1.728,1.784-3.072,2.568c-1.344,0.784-2.864,1.176-4.56,1.176
		c-1.888,0-3.592-0.408-5.112-1.224c-1.521-0.816-2.72-2.008-3.6-3.576c-0.88-1.568-1.32-3.439-1.32-5.616
		c0-2.176,0.456-4.072,1.368-5.688c0.912-1.615,2.144-2.863,3.696-3.744c1.552-0.879,3.271-1.32,5.16-1.32
		c1.696,0,3.168,0.368,4.416,1.104c1.248,0.736,2.256,1.696,3.024,2.88l0.336-3.168H123.159z M116.463,100.677
		c1.168-0.912,1.912-2.152,2.232-3.72v-3.936c-0.384-1.408-1.185-2.551-2.4-3.432c-1.216-0.88-2.608-1.32-4.176-1.32
		c-1.184,0-2.28,0.288-3.288,0.864s-1.808,1.384-2.4,2.424c-0.593,1.041-0.888,2.216-0.888,3.528c0,1.28,0.304,2.448,0.912,3.504
		c0.607,1.056,1.423,1.896,2.448,2.52c1.023,0.624,2.143,0.936,3.36,0.936C113.895,102.045,115.294,101.589,116.463,100.677z"/>
	<path d="M147.878,86.277c1.216,1.104,1.84,2.537,1.872,4.296v14.688h-4.512V92.109c-0.064-1.12-0.401-2-1.009-2.64
		c-0.607-0.64-1.52-0.976-2.735-1.008c-1.76,0-3.216,0.704-4.368,2.112c-1.152,1.409-1.728,3.2-1.728,5.376v9.312h-4.464V85.389
		h4.032l0.288,3.84c0.704-1.44,1.759-2.568,3.168-3.384c1.408-0.816,3.024-1.224,4.848-1.224
		C145.125,84.621,146.661,85.173,147.878,86.277z"/>
	<path d="M170.414,105.117c-1.232,0.416-2.488,0.624-3.769,0.624c-2.144,0-4.04-0.432-5.688-1.296
		c-1.648-0.864-2.928-2.088-3.84-3.672s-1.368-3.416-1.368-5.496c0-2.048,0.479-3.864,1.439-5.448s2.24-2.808,3.841-3.672
		c1.6-0.864,3.327-1.296,5.184-1.296c3.04,0,5.552,0.833,7.536,2.496l-2.256,2.928c-0.641-0.48-1.377-0.888-2.208-1.224
		c-0.833-0.336-1.729-0.504-2.688-0.504c-1.184,0-2.264,0.296-3.24,0.888c-0.977,0.592-1.744,1.4-2.304,2.424
		c-0.561,1.024-0.84,2.16-0.84,3.408s0.296,2.384,0.888,3.408c0.592,1.025,1.399,1.841,2.424,2.448
		c1.024,0.608,2.192,0.912,3.505,0.912c1.632,0,3.055-0.48,4.271-1.44l2.304,2.784C172.71,104.125,171.646,104.701,170.414,105.117z
		"/>
	<path d="M196.31,86.277c1.216,1.104,1.84,2.537,1.872,4.296v14.688h-4.512V92.109c-0.064-1.12-0.401-2-1.009-2.64
		c-0.607-0.64-1.52-0.976-2.735-1.008c-1.152,0-2.192,0.32-3.12,0.96c-0.929,0.64-1.656,1.536-2.185,2.688
		c-0.527,1.152-0.792,2.432-0.792,3.84v9.312h-4.464v-37.2h4.368v20.928c0.736-1.312,1.8-2.368,3.192-3.168
		c1.392-0.799,2.983-1.2,4.775-1.2C193.557,84.621,195.093,85.173,196.31,86.277z"/>
	<path d="M205.598,89.781c0.943-1.616,2.256-2.888,3.936-3.816c1.681-0.928,3.576-1.392,5.688-1.392c2.111,0,3.991,0.464,5.64,1.392
		c1.647,0.928,2.928,2.192,3.84,3.792c0.912,1.601,1.368,3.392,1.368,5.376c0,1.984-0.456,3.785-1.368,5.4
		c-0.912,1.616-2.2,2.888-3.863,3.816c-1.665,0.928-3.569,1.392-5.713,1.392c-2.08,0-3.952-0.44-5.615-1.32
		c-1.664-0.88-2.969-2.12-3.912-3.72c-0.944-1.6-1.416-3.456-1.416-5.568C204.182,93.181,204.653,91.397,205.598,89.781z
		 M209.533,98.637c0.56,1.056,1.328,1.889,2.305,2.496c0.976,0.608,2.056,0.912,3.239,0.912c1.855,0,3.392-0.656,4.608-1.968
		c1.216-1.312,1.824-2.944,1.824-4.896c0-1.952-0.608-3.592-1.824-4.92c-1.217-1.328-2.753-1.992-4.608-1.992
		c-1.216,0-2.304,0.312-3.264,0.936s-1.721,1.464-2.28,2.52c-0.56,1.056-0.84,2.208-0.84,3.456S208.974,97.581,209.533,98.637z"/>
	<path d="M232.55,76.461c0.544-0.48,1.168-0.72,1.872-0.72c0.703,0,1.319,0.24,1.848,0.72s0.792,1.072,0.792,1.776
		c0,0.704-0.264,1.296-0.792,1.776s-1.145,0.72-1.848,0.72c-0.704,0-1.328-0.24-1.872-0.72c-0.545-0.48-0.816-1.072-0.816-1.776
		C231.733,77.533,232.005,76.941,232.55,76.461z M236.533,85.389v19.872h-4.464V85.389H236.533z"/>
	<path d="M245.725,104.925c-1.328-0.512-2.408-1.264-3.239-2.256l1.92-2.592c0.799,0.768,1.639,1.36,2.52,1.776
		c0.88,0.417,1.752,0.624,2.616,0.624c1.056,0,1.92-0.208,2.592-0.624c0.672-0.416,1.008-1.056,1.008-1.92
		c0-0.672-0.208-1.216-0.624-1.632c-0.416-0.416-0.888-0.72-1.416-0.912c-0.527-0.192-1.416-0.48-2.664-0.864
		c-3.392-1.088-5.088-3.024-5.088-5.808c0-1.664,0.616-3.088,1.849-4.272c1.231-1.184,2.951-1.776,5.159-1.776
		c1.408,0,2.656,0.176,3.744,0.528c1.088,0.353,2.096,0.912,3.024,1.68l-1.776,2.736c-0.512-0.544-1.16-0.976-1.943-1.296
		c-0.785-0.32-1.529-0.496-2.232-0.528c-0.896,0-1.664,0.216-2.304,0.648c-0.641,0.432-0.96,1.017-0.96,1.752
		c0,0.608,0.207,1.112,0.624,1.512c0.415,0.4,0.848,0.688,1.296,0.864c0.447,0.176,1.327,0.472,2.64,0.888
		c1.632,0.544,2.904,1.248,3.816,2.112c0.912,0.864,1.368,2.032,1.368,3.504c0,1.92-0.673,3.504-2.017,4.752
		s-3.248,1.872-5.712,1.872C248.453,105.693,247.053,105.436,245.725,104.925z"/>
	<path d="M278.053,100.173l2.064,3.312c-1.057,0.704-2.201,1.256-3.433,1.656c-1.232,0.4-2.424,0.6-3.576,0.6
		c-2.207,0-4.136-0.456-5.783-1.368c-1.648-0.912-2.921-2.167-3.816-3.768c-0.896-1.6-1.344-3.408-1.344-5.424
		c0-1.952,0.487-3.736,1.464-5.352c0.976-1.615,2.312-2.896,4.008-3.84c1.696-0.943,3.552-1.416,5.568-1.416
		c2.592,0,4.76,0.76,6.504,2.28c1.743,1.521,2.936,3.641,3.576,6.36l-15.744,5.52c0.576,0.992,1.352,1.769,2.328,2.328
		c0.976,0.561,2.088,0.84,3.336,0.84C274.868,101.901,276.484,101.325,278.053,100.173z M268.356,90.045
		c-1.184,1.28-1.775,2.912-1.775,4.896c0,0.48,0.016,0.848,0.048,1.104l11.568-4.272c-0.48-1.088-1.16-1.968-2.04-2.64
		c-0.881-0.672-1.977-1.008-3.288-1.008C271.045,88.125,269.54,88.765,268.356,90.045z"/>
</g>
<g>
	<path d="M136.249,54.336v14.725h-1.767V54.336H136.249z"/>
	<path d="M147.4,61.195v7.866h-1.766v-1.292c-0.279,0.368-0.685,0.706-1.217,1.017c-0.532,0.31-1.134,0.465-1.805,0.465
		c-0.748,0-1.422-0.162-2.023-0.484c-0.602-0.323-1.077-0.795-1.425-1.416c-0.349-0.621-0.522-1.361-0.522-2.223
		c0-0.861,0.181-1.612,0.542-2.251c0.361-0.639,0.849-1.133,1.463-1.482c0.614-0.348,1.295-0.522,2.042-0.522
		c0.671,0,1.254,0.146,1.749,0.437c0.494,0.292,0.893,0.671,1.197,1.14l0.133-1.254H147.4z M144.75,67.247
		c0.463-0.361,0.758-0.852,0.885-1.473v-1.558c-0.152-0.557-0.469-1.01-0.951-1.358c-0.48-0.348-1.032-0.522-1.652-0.522
		c-0.469,0-0.903,0.114-1.302,0.342s-0.716,0.548-0.95,0.959c-0.235,0.412-0.352,0.877-0.352,1.396c0,0.507,0.12,0.969,0.361,1.387
		s0.563,0.75,0.969,0.998c0.405,0.247,0.848,0.371,1.33,0.371C143.734,67.788,144.288,67.607,144.75,67.247z"/>
</g>
<g>
	<path fill-rule="evenodd" fill="#010101" d="M280.946,0c0.493,0.158,1.01,0.18,1.517,0.259c1.69,0.262,3.384,0.508,5.076,0.759
		c0.118,0.018,0.236,0.038,0.355,0.043c0.759,0.033,1.399,0.363,2.043,0.743c3.681,2.173,7.382,4.313,11.062,6.488
		c1.223,0.722,2.379,1.548,3.508,2.413c1.306,1.001,2.288,2.267,3.106,3.678c1.488,2.568,2.704,5.267,3.82,8.012
		c0.065,0.162,0.145,0.312,0.242,0.456c0.425,0.616,0.847,1.233,1.265,1.853c0.755,1.112,1.452,2.255,1.89,3.538
		c0.392,1.15,1.169,2.014,2.085,2.768c0.729,0.6,1.479,1.174,2.208,1.772c0.624,0.512,1.162,1.103,1.618,1.773
		c1.177,1.729,2.339,3.467,3.471,5.225c1.654,2.571,2.776,5.394,3.912,8.211c0.278,0.69,0.453,1.45,0.857,2.056
		c0.401,0.601,1.03,1.049,1.561,1.563c0.765,0.74,1.53,1.479,2.294,2.221c0.084,0.082,0.174,0.171,0.221,0.275
		c0.979,2.153,1.947,4.312,2.654,6.574c0.209,0.667,0.359,1.338,0.299,2.042c-0.024,0.289,0.06,0.553,0.179,0.814
		c1.302,2.866,2.464,5.788,3.276,8.831c0.747,2.798,1.421,5.618,1.834,8.492c0.231,1.619,0.424,3.245,0.728,4.851
		c0.264,1.4,0.689,2.769,0.983,4.164c0.225,1.071,0.612,2.061,1.151,3.006c1.254,2.199,1.979,4.596,2.602,7.029
		c0.255,0.994,0.521,1.985,0.773,2.98c0.038,0.15,0.095,0.288,0.161,0.422c0.357,0.716,0.689,1.448,1.086,2.142
		c0.53,0.927,0.819,1.921,0.979,2.966c0.071,0.47,0.177,0.935,0.262,1.403c0.025,0.134,0.102,0.236,0.173,0.345
		c0.634,0.968,1.319,1.913,1.661,3.035c0.287,0.942,0.432,1.92,0.572,2.894c0.281,1.946,0.702,3.847,1.631,5.604
		c0.323,0.611,0.605,1.244,0.911,1.864c0.033,0.07,0.03,0.172,0.137,0.194c0,0.043,0,0.087,0,0.13
		c-1.024,0.268-2.05,0.53-3.102,0.675c-0.679,0.093-1.345,0.04-2.001-0.116c-0.958-0.228-1.897-0.516-2.827-0.841
		c-0.185-0.064-0.249-0.169-0.269-0.347c-0.088-0.852-0.185-1.703-0.274-2.555c-0.025-0.242-0.083-0.455-0.271-0.638
		c-0.185-0.18-0.342-0.393-0.488-0.606c-0.544-0.79-0.554-1.083-0.004-1.878c0.179-0.256,0.174-0.422-0.017-0.668
		c-0.588-0.752-1.144-1.528-1.716-2.293c-0.1-0.134-0.152-0.251-0.123-0.439c0.09-0.589,0.142-1.183,0.205-1.776
		c0.131-1.229-0.304-2.292-0.944-3.305c-0.698-1.103-1.502-2.125-2.347-3.116c-0.137-0.161-0.148-0.259,0.021-0.375
		c0.289-0.195,0.289-0.427,0.185-0.749c-1.121-3.474-2.249-6.944-3.613-10.333c-0.563-1.398-1.191-2.764-2.057-4.002
		c-0.464-0.664-0.731-1.376-0.891-2.162c-0.277-1.377-0.631-2.738-1.041-4.082c-0.339-1.108-0.784-2.177-1.36-3.182
		c-1.668-2.906-2.984-5.971-4.175-9.095c-0.226-0.596-0.481-1.18-0.707-1.776c-0.064-0.17-0.162-0.258-0.329-0.307
		c-0.333-0.095-0.655-0.231-0.991-0.302c-1.017-0.213-1.891,0.025-2.603,0.824c-0.764,0.858-1.319,1.835-1.828,2.862
		c-0.977,1.975-2.338,3.72-3.468,5.604c-2.055,3.422-4.088,6.859-5.882,10.429c-0.538,1.072-0.965,2.195-1.392,3.315
		c-0.096,0.253-0.237,0.449-0.433,0.63c-0.727,0.67-1.455,1.343-2.062,2.125c-0.755,0.972-1.166,2.114-1.553,3.265
		c-0.482,1.433-0.912,2.89-1.834,4.128c-0.704,0.948-1.416,1.893-2.117,2.844c-0.74,1.002-1.522,1.976-2.156,3.053
		c-0.072,0.121-0.13,0.25-0.202,0.372c-0.085,0.145-0.09,0.247,0.049,0.39c0.306,0.317,0.339,0.731,0.219,1.128
		c-0.459,1.511-1.153,2.879-2.52,3.78c-0.304,0.201-0.39,0.412-0.291,0.737c0.021,0.072,0.037,0.148,0.045,0.223
		c0.091,0.967-0.082,1.243-0.996,1.595c-0.111,0.043-0.222,0.098-0.338,0.113c-0.228,0.032-0.258,0.146-0.219,0.354
		c0.119,0.629,0.22,1.261,0.126,1.904c-0.017,0.106-0.033,0.214-0.062,0.317c-0.178,0.621-0.492,0.767-1.019,0.418
		c-0.286-0.19-0.36-0.142-0.488,0.158c-0.509,1.191-0.767,2.428-0.793,3.722c-0.013,0.605-0.031,0.6-0.613,0.761
		c-0.615,0.17-1.234,0.317-1.867,0.412c-0.686,0.103-1.337,0.021-1.96-0.282c-0.624-0.304-1.227-0.642-1.812-1.017
		c-0.181-0.117-0.207-0.211-0.128-0.415c0.748-1.898,1.482-3.803,2.22-5.706c-0.559-0.146-0.632-0.318-0.363-0.837
		c0.203-0.391,0.509-0.702,0.815-1.007c0.136-0.133,0.229-0.272,0.288-0.455c0.315-0.975,0.646-1.946,0.969-2.919
		c0.062-0.188,0.149-0.352,0.281-0.503c0.688-0.783,1.364-1.576,2.051-2.36c0.119-0.135,0.158-0.23,0.057-0.416
		c-0.31-0.557,0.006-1.583,0.559-1.898c0.092-0.053,0.215-0.127,0.299-0.104c0.357,0.1,0.423-0.15,0.535-0.385
		c1.493-3.132,2.956-6.281,4.558-9.359c0.799-1.535,1.682-3.026,2.517-4.542c1.68-3.049,2.992-6.249,4.007-9.58
		c1.321-4.342,2.496-8.723,3.633-13.115c0.056-0.211,0.125-0.413,0.221-0.607c0.615-1.263,1.222-2.53,1.852-3.786
		c0.168-0.334,0-0.637,0.001-0.954c0-0.092-0.103-0.079-0.15-0.043c-0.579,0.447-1.226,0.224-1.844,0.167
		c-1.619-0.15-3.232-0.355-4.846-0.556c-2.23-0.278-4.396-0.83-6.545-1.462c-1.834-0.539-3.659-1.109-5.478-1.698
		c-0.15-0.048-0.306-0.074-0.332-0.293c-0.13-1.076-0.292-2.147-0.344-3.232c-0.062-1.319,0.239-2.582,0.555-3.843
		c0.329-1.321,0.74-2.619,1.18-3.907c0.212-0.618,0.201-1.259,0.288-1.889c0.294-2.124,0.616-4.239,1.363-6.264
		c0.417-1.131,1.21-1.989,2.022-2.836c0.24-0.25,0.472-0.509,0.715-0.772c-0.341-0.112-0.724-0.179-1.117-0.137
		c-0.283,0.03-0.517,0.166-0.656,0.425c-0.298,0.554-0.785,0.669-1.331,0.517c-1.179-0.329-2.263-0.059-3.271,0.526
		c-1.599,0.929-3.07,0.538-4.529-0.322c-0.371-0.218-0.34-0.575-0.355-0.907c-0.048-1.079,0.118-2.142,0.285-3.203
		c0.041-0.257,0.089-0.512,0.14-0.766c0.016-0.079,0.021-0.143-0.024-0.216c-0.705-1.102-0.748-2.351-0.8-3.6
		c-0.02-0.466-0.051-0.932-0.1-1.396c-0.021-0.19,0.008-0.37,0.042-0.548c0.122-0.648-0.008-1.3,0.038-1.949
		c0.112-1.559,0.613-3.022,1.069-4.501c0.243-0.784,0.655-1.355,1.354-1.8c0.94-0.599,1.839-1.266,2.857-1.729
		c1.526-0.692,3.141-0.878,4.795-0.766c0.835,0.056,1.649,0.227,2.403,0.618c0.28,0.146,0.518,0.355,0.756,0.56
		c1.555,1.339,2.479,3.045,3.012,5.01c0.543,2.005,1.045,4.017,1.411,6.062c0.013,0.074,0.024,0.152,0.014,0.227
		c-0.044,0.351-0.046,0.351,0.258,0.653c0.599-1.157,1.213-2.299,1.777-3.466c0.152-0.312,0.128-0.709-0.006-1.046
		c-1.474-3.679-2.957-7.354-4.436-11.032c-0.061-0.15-0.174-0.241-0.291-0.337c-1.841-1.52-3.747-2.964-5.527-4.554
		c-1.709-1.526-3.361-3.115-5.038-4.678c-0.119-0.112-0.244-0.21-0.39-0.288c-1.306-0.701-2.609-1.404-3.916-2.105
		c-0.111-0.06-0.217-0.13-0.361-0.122c-0.628,0.033-1.257,0.053-1.887,0.083c-1.78,0.084-3.463,0.597-5.131,1.176
		c-0.424,0.148-0.851,0.293-1.363,0.47c0.397-0.639,0.748-1.202,1.099-1.765c-0.017-0.024-0.032-0.049-0.049-0.074
		c-0.817,0.515-1.636,1.029-2.533,1.593c0.597-1.323,1.158-2.566,1.726-3.823c-1.525-0.161-3.021-0.319-4.516-0.478
		c0.001-0.014,0.002-0.027,0.003-0.042c1.219-0.091,2.437-0.184,3.655-0.274c0.628-0.047,1.256-0.09,1.884-0.134
		c0.045-0.003,0.082-0.013,0.093-0.064C280.252,0,280.599,0,280.946,0z"/>
</g>
</svg>
