<?xml version="1.0" encoding="utf-8"?>
<!-- Generator: Adobe Illustrator 16.0.0, SVG Export Plug-In . SVG Version: 6.00 Build 0)  -->
<svg version="1.2" baseProfile="tiny" id="Calque_1"
	 xmlns="http://www.w3.org/2000/svg" xmlns:xlink="http://www.w3.org/1999/xlink" x="0px" y="0px" width="595.28px"
	 height="841.89px" viewBox="0 0 595.28 841.89" xml:space="preserve">
<g>
	<g>
		<path fill="#040305" d="M223.194,285.741c-12.705,1.121-22.073,7.457-27.539,16.626c-3.662,4.589-10.98,18.606-13.64,25.941
			c-4.822,9.124-9.03,19.98-12.321,29.768c-2.012,5.982,7.026,9.888,9.046,3.877c2.462-7.322,5.436-15.238,8.798-22.583
			c3.336,7.464,6.725,14.906,10.365,22.226c2.818,5.687,11.308,0.702,8.496-4.964c-3.747-7.538-7.225-15.196-10.656-22.882
			c0.044-0.147,0.099-0.294,0.143-0.438c0.574,0.162,1.207,0.212,1.899,0.08c5.246-0.985,10.493-1.966,15.741-2.952
			c2.248-0.422,3.106-2.877,2.751-4.84c-1.059-5.893-4.413-9.988-8.591-13.863c-0.617-2.11-2.685-3.973-4.984-5.828
			c4.652-7.518,12.247-11.599,22.131-12.468C229.875,292.995,228.195,285.299,223.194,285.741z M204.08,319.209
			c1.295,1.347,2.399,2.769,3.233,4.412c-2.538,0.48-5.079,0.953-7.616,1.431C200.979,322.989,202.45,321.041,204.08,319.209z"/>
		<circle fill="#040305" cx="214.942" cy="305.747" r="6.757"/>
	</g>
</g>
<g>
	<g>
		<path fill="#565656" d="M272.565,306.696c8.048,0.709,14.236,4.034,18.025,10.158c-1.869,1.51-3.55,3.031-4.055,4.749
			c-3.405,3.158-6.135,6.494-7.001,11.286c-0.287,1.606,0.417,3.603,2.24,3.949c4.275,0.8,8.552,1.602,12.826,2.405
			c0.566,0.105,1.08,0.066,1.543-0.068c0.041,0.12,0.086,0.239,0.121,0.36c-2.795,6.259-5.631,12.499-8.68,18.641
			c-2.293,4.614,4.622,8.674,6.921,4.042c2.965-5.963,5.722-12.026,8.444-18.107c2.737,5.983,5.158,12.434,7.163,18.397
			c1.652,4.896,9.013,1.719,7.372-3.156c-2.681-7.975-6.107-16.819-10.034-24.25c-2.171-5.978-8.133-17.395-11.115-21.135
			c-4.451-7.469-12.086-12.634-22.435-13.546C269.822,300.067,268.457,306.334,272.565,306.696z M293.043,332.448
			c-2.071-0.386-4.14-0.774-6.207-1.164c0.679-1.338,1.579-2.497,2.635-3.594C290.796,329.184,291.997,330.767,293.043,332.448z"/>
		<path fill="#565656" d="M286.127,316.724c0,3.037-2.465,5.504-5.504,5.504c-3.04,0-5.503-2.467-5.503-5.504
			c0-3.04,2.463-5.505,5.503-5.505C283.662,311.219,286.127,313.684,286.127,316.724z"/>
	</g>
</g>
<g>
	<path d="M156.323,291.355l3.179,2.396l-1.124,1.491c-0.958-0.447-1.776-0.627-2.453-0.542c-0.677,0.085-1.248,0.435-1.71,1.049
		c-0.871,1.155-0.975,2.445-0.314,3.872c0.661,1.427,2.081,2.96,4.258,4.602c2.024,1.526,3.761,2.411,5.21,2.655
		s2.567-0.156,3.355-1.202c0.402-0.533,0.641-1.036,0.715-1.507s0.008-0.942-0.199-1.413c-0.207-0.471-0.58-1.024-1.12-1.661
		l1.132-1.502l3.321,2.503c-0.416,0.947-0.831,1.786-1.244,2.517c-0.414,0.731-0.89,1.455-1.43,2.171
		c-1.146,1.52-2.355,2.554-3.627,3.102s-2.634,0.633-4.085,0.255c-1.452-0.378-3.025-1.206-4.721-2.483
		c-1.585-1.195-2.763-2.504-3.531-3.925c-0.768-1.421-1.076-2.894-0.924-4.418c0.152-1.524,0.775-3.013,1.872-4.468
		c0.557-0.738,1.101-1.376,1.633-1.915S155.65,291.868,156.323,291.355z"/>
	<path d="M178.146,295.314l-5.326,4.855l-0.61-0.669c0.189-0.296,0.32-0.549,0.395-0.759c0.074-0.21,0.084-0.417,0.028-0.621
		c-0.055-0.203-0.17-0.421-0.344-0.652s-0.409-0.51-0.705-0.834l-7.972-8.745c-0.29-0.318-0.542-0.577-0.756-0.778
		c-0.214-0.201-0.418-0.336-0.613-0.407c-0.194-0.07-0.403-0.082-0.625-0.034c-0.223,0.048-0.493,0.155-0.812,0.322l-0.61-0.669
		l5.914-5.392c0.798-0.728,1.527-1.29,2.187-1.687c0.66-0.397,1.304-0.671,1.933-0.824c0.524-0.131,1.039-0.164,1.544-0.099
		c0.506,0.065,0.999,0.229,1.479,0.491c0.48,0.262,0.952,0.646,1.414,1.154c0.604,0.663,1.006,1.337,1.204,2.023
		c0.199,0.686,0.243,1.367,0.134,2.042c-0.109,0.675-0.369,1.454-0.778,2.335l0.092,0.102c0.698-0.24,1.375-0.328,2.033-0.266
		c0.658,0.063,1.372,0.251,2.141,0.565l1.896,0.797c0.845,0.357,1.548,0.561,2.109,0.613c0.562,0.052,1.066-0.064,1.513-0.348
		l0.61,0.669l-3.905,3.561c-0.886-0.183-2.063-0.584-3.53-1.203l-2.373-1.013c-0.705-0.298-1.241-0.479-1.607-0.541
		c-0.366-0.062-0.676-0.052-0.929,0.03c-0.253,0.082-0.566,0.293-0.938,0.632l-0.588,0.536l2.978,3.267
		c0.462,0.507,0.81,0.841,1.042,1s0.472,0.239,0.718,0.237s0.595-0.122,1.047-0.36L178.146,295.314z M165.527,283.673l5.142,5.641
		l1.004-0.916c0.541-0.493,0.921-0.973,1.14-1.439c0.219-0.466,0.313-0.923,0.282-1.372c-0.031-0.448-0.168-0.884-0.411-1.307
		c-0.243-0.422-0.555-0.843-0.938-1.263c-0.838-0.92-1.684-1.412-2.536-1.478c-0.852-0.065-1.704,0.291-2.556,1.067
		C166.074,283.138,165.698,283.493,165.527,283.673z"/>
	<path d="M192.41,277.613l-5.022,3.023l0.285,1.351c0.079,0.38,0.172,0.738,0.278,1.074s0.259,0.669,0.457,0.999
		c0.462,0.769,1.118,0.935,1.966,0.499l0.467,0.776l-5.022,3.023l-0.467-0.776c0.271-0.206,0.465-0.461,0.581-0.766
		s0.174-0.66,0.175-1.067c0.001-0.406-0.064-0.949-0.195-1.629l-2.961-16.018l3.14-1.89l11.81,10.835
		c0.526,0.484,0.923,0.814,1.189,0.99c0.266,0.176,0.54,0.284,0.82,0.324c0.28,0.04,0.61-0.006,0.99-0.139l0.467,0.776l-6.492,3.908
		l-0.467-0.776c0.379-0.292,0.613-0.588,0.7-0.886s0.032-0.612-0.166-0.941c-0.146-0.243-0.336-0.497-0.571-0.762
		c-0.234-0.265-0.551-0.587-0.95-0.966L192.41,277.613z M187.006,278.991l4.234-2.549l-5.868-5.488L187.006,278.991z"/>
	<path d="M207.377,261.548c-0.01-0.408-0.039-0.784-0.087-1.128c-0.049-0.344-0.14-0.691-0.275-1.042
		c-0.161-0.418-0.393-0.697-0.695-0.836c-0.303-0.139-0.688-0.138-1.154,0.001l-0.325-0.846l5.524-2.12l0.324,0.846
		c-0.305,0.176-0.54,0.386-0.706,0.631c-0.166,0.245-0.284,0.55-0.354,0.915c-0.071,0.366-0.102,0.929-0.094,1.69l0.119,16.363
		l-2.96,1.136l-9.737-12.731c-0.434-0.568-0.767-0.963-0.998-1.183c-0.231-0.22-0.482-0.374-0.751-0.462
		c-0.269-0.088-0.602-0.1-0.999-0.036l-0.325-0.846l7.087-2.719l0.324,0.846c-0.424,0.222-0.706,0.472-0.844,0.75
		s-0.138,0.597,0,0.956c0.108,0.282,0.24,0.548,0.394,0.797c0.155,0.25,0.426,0.638,0.814,1.165l6.069,8.228L207.377,261.548z"/>
	<path d="M224.651,265.815l-5.748,1.151l-0.188,1.368c-0.054,0.384-0.087,0.752-0.101,1.105c-0.013,0.353,0.018,0.717,0.093,1.094
		c0.176,0.879,0.737,1.257,1.683,1.133l0.178,0.888l-5.748,1.15l-0.178-0.888c0.325-0.103,0.593-0.277,0.805-0.525
		c0.211-0.248,0.386-0.563,0.524-0.945s0.26-0.915,0.366-1.599l2.619-16.078l3.594-0.72l7.46,14.187
		c0.332,0.633,0.594,1.078,0.785,1.333c0.191,0.256,0.412,0.45,0.663,0.582c0.25,0.132,0.576,0.2,0.979,0.203l0.178,0.888
		l-7.43,1.487l-0.178-0.888c0.456-0.147,0.775-0.346,0.958-0.598c0.183-0.251,0.237-0.565,0.161-0.942
		c-0.056-0.278-0.149-0.582-0.28-0.91c-0.131-0.328-0.321-0.738-0.568-1.23L224.651,265.815z M219.1,265.289l4.846-0.97l-3.67-7.147
		L219.1,265.289z"/>
	<path d="M251.545,251.438l-0.015,0.906c-0.368,0.113-0.628,0.209-0.78,0.289c-0.152,0.08-0.283,0.188-0.39,0.323
		c-0.108,0.136-0.191,0.343-0.25,0.621c-0.06,0.278-0.094,0.706-0.103,1.282l-0.248,15.29l-3.486-0.057l-6.003-10.778
		c-0.81-1.459-1.404-2.604-1.784-3.434l-0.124-0.002c0.06,1.969,0.072,4.046,0.036,6.233l-0.071,4.419
		c-0.011,0.686,0.015,1.167,0.08,1.443c0.064,0.275,0.184,0.495,0.36,0.658c0.176,0.163,0.51,0.313,1.002,0.449l-0.015,0.906
		l-5.188-0.084l0.015-0.906c0.34-0.086,0.609-0.182,0.808-0.289c0.198-0.106,0.347-0.252,0.446-0.439
		c0.099-0.186,0.165-0.42,0.197-0.704s0.051-0.64,0.059-1.07l0.192-11.873c0.011-0.686-0.011-1.16-0.066-1.422
		s-0.175-0.481-0.36-0.658c-0.185-0.177-0.519-0.333-1.001-0.469l0.015-0.906l5.559,0.09l4.722,8.52
		c0.293,0.536,0.675,1.26,1.146,2.174c0.47,0.914,0.886,1.776,1.249,2.588l0.22,0.003c-0.065-2.188-0.077-4.578-0.035-7.167
		l0.042-2.553c0.01-0.594-0.006-1.025-0.048-1.291s-0.109-0.469-0.203-0.607c-0.094-0.139-0.221-0.255-0.379-0.349
		c-0.159-0.094-0.425-0.199-0.798-0.315l0.015-0.906L251.545,251.438z"/>
	<path d="M270.91,255.069l-0.752,3.909l-1.833-0.353c-0.02-1.057-0.218-1.871-0.592-2.441c-0.375-0.57-0.94-0.929-1.695-1.074
		c-1.42-0.273-2.625,0.201-3.614,1.422c-0.99,1.222-1.743,3.171-2.258,5.849c-0.479,2.489-0.509,4.438-0.09,5.847
		c0.418,1.409,1.27,2.237,2.555,2.484c0.656,0.126,1.212,0.119,1.668-0.021c0.456-0.141,0.849-0.407,1.181-0.8
		c0.332-0.393,0.665-0.972,0.999-1.737l1.847,0.355l-0.786,4.084c-1.034,0.043-1.97,0.04-2.808-0.009
		c-0.838-0.05-1.698-0.159-2.579-0.329c-1.869-0.36-3.33-0.99-4.382-1.892c-1.052-0.901-1.728-2.087-2.027-3.556
		c-0.3-1.47-0.249-3.247,0.152-5.332c0.375-1.95,1.032-3.583,1.97-4.898c0.938-1.315,2.125-2.24,3.561-2.774
		c1.435-0.535,3.047-0.63,4.835-0.286c0.908,0.174,1.72,0.382,2.438,0.623C269.416,254.381,270.153,254.691,270.91,255.069z"/>
	<path d="M286.533,276.596c-0.266,0.653-0.42,1.111-0.463,1.375c-0.043,0.264-0.013,0.511,0.091,0.741s0.358,0.492,0.762,0.785
		l-0.342,0.839l-6.636-2.703l0.342-0.839c0.543,0.073,0.913,0.075,1.109,0.007s0.371-0.207,0.525-0.416
		c0.154-0.209,0.378-0.674,0.671-1.394l2.076-5.098l-5.746-2.34l-2.077,5.098c-0.121,0.297-0.225,0.575-0.311,0.836
		s-0.137,0.483-0.152,0.665s0.004,0.348,0.057,0.498s0.147,0.299,0.284,0.449c0.136,0.149,0.315,0.304,0.538,0.463l-0.342,0.839
		l-6.674-2.718l0.341-0.839c0.348,0.043,0.633,0.053,0.855,0.029c0.222-0.023,0.413-0.104,0.572-0.241
		c0.16-0.137,0.307-0.334,0.441-0.591c0.134-0.257,0.284-0.588,0.45-0.996l4.463-10.958c0.162-0.398,0.288-0.737,0.377-1.017
		s0.124-0.522,0.104-0.729c-0.02-0.206-0.1-0.398-0.238-0.579c-0.139-0.18-0.353-0.378-0.64-0.594l0.342-0.839l6.674,2.718
		l-0.342,0.839c-0.501-0.056-0.865-0.041-1.092,0.044c-0.228,0.085-0.426,0.239-0.596,0.461c-0.17,0.223-0.387,0.66-0.653,1.313
		l-1.729,4.247l5.746,2.34l1.729-4.247c0.262-0.644,0.417-1.102,0.464-1.375c0.046-0.272,0.019-0.521-0.082-0.745
		c-0.102-0.224-0.355-0.493-0.761-0.806l0.342-0.839l6.636,2.703l-0.342,0.839c-0.415-0.05-0.729-0.053-0.946-0.007
		c-0.216,0.045-0.396,0.143-0.541,0.291c-0.145,0.149-0.272,0.329-0.383,0.541c-0.111,0.212-0.26,0.546-0.446,1.004L286.533,276.596
		z"/>
	<path d="M295.835,286.599c-2.221-1.519-3.444-3.309-3.67-5.37s0.547-4.387,2.319-6.979c1.163-1.7,2.426-2.967,3.79-3.803
		c1.364-0.835,2.786-1.208,4.264-1.116c1.479,0.091,2.943,0.632,4.394,1.624c2.259,1.545,3.512,3.353,3.759,5.423
		s-0.502,4.382-2.248,6.935c-0.977,1.428-1.982,2.539-3.019,3.332c-1.036,0.794-2.089,1.308-3.158,1.541
		c-1.068,0.233-2.142,0.209-3.218-0.072C297.971,287.832,296.9,287.327,295.835,286.599z M298.297,276.408
		c-1.56,2.282-2.447,4.167-2.662,5.655s0.241,2.618,1.367,3.388c0.582,0.397,1.184,0.579,1.806,0.545
		c0.623-0.035,1.252-0.247,1.89-0.637s1.275-0.932,1.912-1.628c0.636-0.695,1.27-1.504,1.899-2.426
		c1.028-1.503,1.771-2.844,2.228-4.023c0.457-1.178,0.622-2.19,0.497-3.036c-0.126-0.845-0.563-1.524-1.311-2.035
		c-1.096-0.75-2.268-0.783-3.516-0.101S299.79,274.226,298.297,276.408z"/>
	<path d="M311.872,295.053c-0.22,0.232-0.418,0.455-0.594,0.667c-0.176,0.211-0.304,0.399-0.384,0.563
		c-0.079,0.164-0.122,0.325-0.128,0.484s0.028,0.333,0.102,0.521c0.072,0.189,0.184,0.398,0.332,0.627l-0.624,0.657l-5.228-4.96
		l0.623-0.657c0.309,0.167,0.571,0.279,0.786,0.338s0.422,0.054,0.621-0.016c0.198-0.07,0.407-0.2,0.626-0.39
		c0.218-0.19,0.479-0.445,0.78-0.764l8.154-8.593c0.303-0.319,0.543-0.589,0.722-0.811c0.179-0.221,0.298-0.433,0.357-0.635
		s0.056-0.411-0.012-0.626c-0.067-0.215-0.195-0.476-0.385-0.781l0.624-0.657l5.228,4.96l-0.623,0.657
		c-0.342-0.186-0.617-0.298-0.825-0.338c-0.208-0.04-0.402-0.031-0.582,0.025c-0.18,0.057-0.374,0.168-0.583,0.336
		c-0.21,0.167-0.49,0.437-0.843,0.809L311.872,295.053z"/>
	<path d="M317.582,299.305c-0.705,0.861-1.098,1.668-1.179,2.421c-0.081,0.752,0.202,1.532,0.851,2.337
		c0.339,0.421,0.714,0.741,1.127,0.961c0.412,0.22,0.858,0.304,1.34,0.251c0.48-0.052,0.96-0.271,1.438-0.655
		c0.441-0.355,0.759-0.746,0.951-1.171c0.192-0.425,0.288-0.937,0.287-1.536c0-0.599-0.098-1.355-0.292-2.268
		c-0.17-0.78-0.286-1.515-0.349-2.205c-0.062-0.69-0.041-1.339,0.063-1.946s0.301-1.17,0.588-1.689s0.697-0.994,1.232-1.424
		c0.876-0.706,1.796-1.088,2.76-1.147c0.963-0.059,1.935,0.196,2.914,0.764c0.98,0.568,1.907,1.393,2.779,2.477
		c0.511,0.634,0.965,1.268,1.362,1.899s0.809,1.387,1.234,2.266l-3.101,2.497l-1.18-1.465c0.454-0.589,0.763-1.122,0.925-1.599
		s0.195-0.936,0.1-1.375c-0.097-0.44-0.336-0.898-0.721-1.376c-0.327-0.406-0.691-0.712-1.092-0.918
		c-0.401-0.206-0.817-0.288-1.248-0.247c-0.431,0.041-0.846,0.223-1.244,0.544c-0.414,0.333-0.707,0.702-0.881,1.106
		s-0.253,0.912-0.237,1.522c0.016,0.61,0.127,1.424,0.337,2.443c0.25,1.244,0.357,2.293,0.324,3.149
		c-0.034,0.856-0.213,1.611-0.537,2.266c-0.325,0.655-0.829,1.258-1.514,1.809c-0.876,0.706-1.801,1.116-2.773,1.229
		c-0.972,0.113-1.943-0.08-2.915-0.578s-1.867-1.257-2.688-2.276c-0.585-0.727-1.154-1.518-1.706-2.371
		c-0.553-0.854-1.029-1.689-1.429-2.507l3.293-2.652L317.582,299.305z"/>
	<path d="M345.113,315.281l-3.806,2.138l-0.921-1.639c0.61-0.689,0.997-1.201,1.161-1.535c0.164-0.333,0.252-0.672,0.265-1.015
		c0.012-0.343-0.154-0.821-0.5-1.436l-1.466-2.608l-5.744,3.228l0.888,1.58c0.197,0.351,0.401,0.598,0.613,0.741
		c0.212,0.144,0.471,0.216,0.776,0.218c0.305,0.001,0.734-0.074,1.288-0.229l0.761,1.353l-4.859,2.73l-0.76-1.353
		c0.4-0.372,0.684-0.694,0.851-0.966c0.167-0.272,0.25-0.532,0.248-0.777s-0.107-0.556-0.318-0.931l-0.888-1.58l-6.391,3.591
		l1.46,2.597c0.156,0.279,0.307,0.504,0.45,0.676s0.302,0.308,0.475,0.41s0.375,0.181,0.604,0.235
		c0.23,0.054,0.463,0.086,0.699,0.095c0.236,0.009,0.531-0.007,0.886-0.049c0.354-0.042,0.823-0.132,1.407-0.271l0.921,1.639
		l-4.496,2.228l-6.61-11.764l0.79-0.444c0.245,0.25,0.462,0.436,0.65,0.555c0.188,0.12,0.388,0.176,0.599,0.168
		c0.21-0.008,0.448-0.071,0.713-0.188c0.265-0.118,0.589-0.284,0.972-0.499l10.315-5.797c0.375-0.21,0.685-0.397,0.929-0.561
		s0.422-0.332,0.534-0.505c0.113-0.173,0.171-0.374,0.174-0.602c0.004-0.228-0.04-0.515-0.131-0.863l0.79-0.444L345.113,315.281z"/>
</g>
<g>
	<path d="M238.628,236.113c0.85-0.862,1.276-1.687,1.276-2.476c0-0.592-0.199-1.318-0.597-2.18
		c-0.398-0.862-1.021-1.796-1.872-2.802c-0.839-1.017-1.403-1.88-1.69-2.59c-0.288-0.71-0.431-1.417-0.431-2.123
		c0-1.607,0.708-3.058,2.124-4.354c1.416-1.296,3.192-1.944,5.329-1.944c1.721,0,3.109,0.433,4.162,1.299
		c1.053,0.866,1.579,1.994,1.579,3.384c0,1.307-0.469,2.445-1.408,3.415c-0.939,0.97-2.021,1.455-3.244,1.455
		c-0.975,0-1.75-0.265-2.326-0.793c-0.576-0.529-0.863-1.219-0.863-2.069c0-1.286,0.669-2.256,2.007-2.91l0.218,0.327
		c-0.705,0.57-1.058,1.25-1.058,2.038c0,0.674,0.262,1.268,0.786,1.781c0.523,0.514,1.144,0.77,1.859,0.77
		c0.778,0,1.431-0.303,1.96-0.91c0.529-0.606,0.793-1.356,0.793-2.248c0-1.265-0.534-2.362-1.603-3.291s-2.365-1.393-3.889-1.393
		c-1.4,0-2.552,0.412-3.454,1.237s-1.354,1.792-1.354,2.902c0,1.317,0.679,2.774,2.038,4.372c1.556,1.805,2.333,3.568,2.333,5.29
		c0,1.39-0.617,2.759-1.851,4.107c1.96,0.83,3.49,1.245,4.589,1.245c1.245,0,2.422-0.798,3.532-2.396l0.482,0.389
		c-0.685,1.079-1.458,1.872-2.318,2.38s-1.971,0.762-3.329,0.762c-1.089,0-2.64-0.399-4.652-1.198
		c-1.545,0.871-2.998,1.307-4.356,1.307c-0.84,0-1.546-0.166-2.116-0.498c-0.57-0.332-0.855-0.742-0.855-1.229
		c0-0.549,0.358-1.021,1.073-1.416c0.716-0.394,1.582-0.591,2.598-0.591C235.148,235.164,236.658,235.48,238.628,236.113z
		 M236.901,237.264c-1.67-0.83-2.925-1.245-3.765-1.245c-1.079,0-1.618,0.28-1.618,0.84c0,0.311,0.244,0.599,0.731,0.864
		c0.487,0.264,1.052,0.396,1.696,0.396C234.858,238.12,235.843,237.834,236.901,237.264z"/>
	<path d="M258.761,236.02c-1.182,1.846-2.339,2.769-3.469,2.769c-0.425,0-0.731-0.114-0.918-0.342s-0.286-0.705-0.296-1.431
		c-0.622,0.768-1.148,1.268-1.579,1.501c-0.43,0.233-0.92,0.35-1.47,0.35c-0.799,0-1.434-0.275-1.906-0.825
		c-0.472-0.55-0.708-1.286-0.708-2.209v-0.669c-0.114,0.146-0.379,0.519-0.793,1.12l-0.513-0.358
		c0.913-1.41,1.875-2.518,2.886-3.322c1.011-0.803,1.896-1.206,2.653-1.206c0.539,0,1.074,0.161,1.603,0.482l1.369-0.7v5.29
		c0,0.56,0.026,0.897,0.078,1.011s0.192,0.171,0.42,0.171c0.197,0,0.492-0.176,0.887-0.529c0.394-0.353,0.825-0.856,1.292-1.509
		L258.761,236.02z M254.047,235.833v-3.127c-0.417-0.425-0.917-0.638-1.5-0.638c-0.625,0-1.188,0.291-1.687,0.872
		c-0.5,0.581-0.75,1.302-0.75,2.163c0,0.747,0.177,1.325,0.531,1.734c0.354,0.41,0.838,0.615,1.453,0.615
		c0.479,0,0.924-0.236,1.335-0.708C253.841,236.271,254.047,235.967,254.047,235.833z"/>
</g>
</svg>
