<?xml version="1.0" encoding="utf-8"?>
<!-- Generator: Adobe Illustrator 16.0.0, SVG Export Plug-In . SVG Version: 6.00 Build 0)  -->
<svg version="1.2" baseProfile="tiny" id="Calque_1"
	 xmlns="http://www.w3.org/2000/svg" xmlns:xlink="http://www.w3.org/1999/xlink" x="0px" y="0px" width="215.369px"
	 height="75.833px" viewBox="0 0 215.369 75.833" xml:space="preserve">
<g>
	<path d="M38.09,12.886c-0.497-0.343-1.092-0.615-1.787-0.82c-0.694-0.204-1.414-0.307-2.158-0.307c-1.166,0-2.198,0.26-3.094,0.781
		c-0.896,0.52-1.586,1.252-2.073,2.197c-0.487,0.946-0.729,2.029-0.729,3.25c0,1.382,0.371,2.472,1.112,3.27
		c0.741,0.799,1.752,1.197,3.034,1.197c0.725,0,1.399-0.114,2.022-0.342l0.745-3.563h-3.14l0.443-2.052h5.625l-1.49,6.983
		c-1.382,0.724-2.891,1.086-4.527,1.086c-1.288,0-2.42-0.267-3.396-0.801c-0.976-0.533-1.724-1.288-2.244-2.264
		c-0.52-0.975-0.78-2.091-0.78-3.345c0-1.644,0.356-3.12,1.066-4.427c0.711-1.309,1.719-2.318,3.024-3.029
		c1.304-0.711,2.833-1.066,4.583-1.066c1.442,0,2.857,0.295,4.246,0.886L38.09,12.886z"/>
	<path d="M38.371,29.145c-0.469,0-0.916-0.07-1.339-0.21l0.423-1.952c0.262,0.161,0.597,0.242,1.006,0.242
		c0.845,0,1.563-0.453,2.154-1.359l1.035-1.609l-1.941-10.254h2.525l0.966,7.094l0.04,0.654l-0.02,0.423h0.051
		c0.167-0.43,0.328-0.786,0.483-1.067l3.853-7.104h2.586l-6.932,11.611c-0.765,1.281-1.524,2.19-2.28,2.727
		C40.228,28.876,39.357,29.145,38.371,29.145z"/>
	<path d="M66.493,16.528c0,0.336-0.104,0.996-0.313,1.982l-1.236,5.795h-2.415l1.258-5.957c0.134-0.717,0.201-1.157,0.201-1.318
		c0-0.905-0.398-1.358-1.196-1.358c-0.618,0-1.272,0.377-1.963,1.131c-0.691,0.755-1.126,1.565-1.308,2.431l-1.066,5.071H56.02
		l1.268-5.957c0.134-0.717,0.201-1.157,0.201-1.318c0-0.905-0.399-1.358-1.197-1.358c-0.409,0-0.849,0.178-1.318,0.533
		c-0.47,0.355-0.886,0.817-1.248,1.383c-0.362,0.567-0.598,1.118-0.705,1.655l-1.086,5.061H49.49l1.559-7.205
		c0.242-1.153,0.419-2.187,0.533-3.099h2.375c-0.054,0.57-0.158,1.308-0.313,2.214h0.041c0.53-0.778,1.123-1.384,1.781-1.816
		c0.657-0.433,1.312-0.649,1.963-0.649c1.576,0,2.42,0.839,2.535,2.516c0.563-0.818,1.186-1.442,1.865-1.872
		c0.682-0.429,1.377-0.644,2.089-0.644c0.858,0,1.501,0.24,1.931,0.72C66.279,14.95,66.493,15.636,66.493,16.528z"/>
	<path d="M78.437,16.518c0,0.342-0.104,1.006-0.312,1.993l-1.228,5.795h-2.435l1.249-5.957c0.132-0.717,0.199-1.157,0.199-1.318
		c0-0.402-0.104-0.729-0.315-0.981c-0.211-0.251-0.511-0.377-0.901-0.377c-0.429,0-0.887,0.169-1.374,0.508
		c-0.486,0.34-0.918,0.794-1.292,1.363c-0.376,0.57-0.625,1.137-0.746,1.701l-1.075,5.061h-2.455l1.559-7.205
		c0.241-1.153,0.42-2.187,0.534-3.099h2.376c-0.055,0.57-0.16,1.308-0.313,2.214h0.04c0.537-0.785,1.148-1.392,1.836-1.822
		c0.688-0.429,1.37-0.644,2.048-0.644c0.831,0,1.474,0.238,1.926,0.715C78.211,14.941,78.437,15.626,78.437,16.518z"/>
	<path d="M88.752,24.306h-2.466c0-0.167,0.021-0.475,0.06-0.92c0.041-0.447,0.08-0.79,0.119-1.032h-0.039
		c-0.422,0.617-0.786,1.065-1.092,1.343c-0.307,0.279-0.636,0.492-0.991,0.64c-0.357,0.147-0.758,0.221-1.208,0.221
		c-0.979,0-1.739-0.345-2.281-1.036c-0.545-0.691-0.817-1.647-0.817-2.868c0-1.247,0.293-2.435,0.881-3.563
		c0.586-1.126,1.371-1.965,2.355-2.514c0.983-0.55,2.127-0.826,3.434-0.826c1.082,0,2.366,0.162,3.854,0.483l-1.418,6.721
		c-0.1,0.476-0.189,1.061-0.27,1.755C88.791,23.405,88.752,23.937,88.752,24.306z M87.824,15.723
		c-0.417-0.101-0.875-0.151-1.379-0.151c-0.765,0-1.438,0.2-2.023,0.599c-0.581,0.399-1.052,1.005-1.407,1.816
		c-0.356,0.812-0.534,1.659-0.534,2.545c0,0.671,0.128,1.189,0.387,1.555c0.258,0.365,0.636,0.548,1.132,0.548
		c0.724,0,1.376-0.378,1.958-1.136c0.579-0.758,1.005-1.761,1.272-3.009L87.824,15.723z"/>
	<path d="M98.791,16.196c-0.295-0.174-0.646-0.326-1.052-0.453c-0.404-0.127-0.81-0.191-1.211-0.191
		c-0.564,0-0.984,0.119-1.263,0.357s-0.419,0.544-0.419,0.921c0,0.335,0.114,0.613,0.341,0.834c0.23,0.221,0.56,0.45,0.989,0.684
		c0.871,0.49,1.467,0.956,1.784,1.398c0.318,0.443,0.479,0.963,0.479,1.56c0,0.651-0.169,1.217-0.508,1.7
		c-0.34,0.483-0.833,0.863-1.485,1.137c-0.65,0.275-1.445,0.413-2.382,0.413c-0.512,0-1.052-0.057-1.623-0.171
		c-0.569-0.114-1.004-0.251-1.308-0.412l0.403-1.992c0.369,0.22,0.807,0.409,1.313,0.563c0.507,0.155,0.995,0.231,1.464,0.231
		c0.59,0,1.03-0.11,1.318-0.332c0.289-0.221,0.434-0.526,0.434-0.915c0-0.302-0.099-0.564-0.298-0.786
		c-0.198-0.221-0.583-0.486-1.151-0.795c-0.76-0.408-1.31-0.841-1.655-1.297c-0.346-0.457-0.52-0.992-0.52-1.61
		c0-0.63,0.164-1.195,0.489-1.695c0.325-0.5,0.795-0.891,1.409-1.173c0.613-0.281,1.343-0.423,2.188-0.423
		c0.504,0,0.993,0.045,1.473,0.136c0.48,0.091,0.885,0.203,1.214,0.337L98.791,16.196z"/>
	<path d="M107.002,15.874h-2.507l-0.985,4.658c-0.121,0.584-0.182,0.976-0.182,1.177c0,0.309,0.071,0.532,0.212,0.669
		s0.373,0.206,0.695,0.206c0.308,0,0.778-0.121,1.408-0.362l-0.403,1.902c-0.67,0.261-1.334,0.392-1.991,0.392
		c-1.589,0-2.385-0.774-2.385-2.324c0-0.389,0.069-0.898,0.21-1.529l1.009-4.789h-1.651l0.442-1.872h1.6l0.534-2.465l2.556-0.673
		l-0.654,3.138h2.526L107.002,15.874z"/>
	<path d="M109.98,24.477c-0.739,0-1.301-0.186-1.687-0.559c-0.385-0.372-0.578-0.903-0.578-1.594c0-0.349,0.036-0.692,0.111-1.027
		l1.498-7.295h2.445l-1.367,6.49c-0.141,0.671-0.211,1.104-0.211,1.298c0,0.51,0.292,0.765,0.873,0.765
		c0.343,0,0.65-0.054,0.916-0.162l-0.381,1.852C111.023,24.399,110.484,24.477,109.98,24.477z M112.717,10.511
		c0,0.402-0.145,0.736-0.432,1.001c-0.29,0.265-0.642,0.396-1.058,0.396c-0.401,0-0.742-0.12-1.021-0.362
		c-0.278-0.242-0.418-0.56-0.418-0.955c0-0.41,0.146-0.742,0.442-0.997s0.65-0.382,1.066-0.382c0.388,0,0.724,0.122,1.001,0.368
		C112.577,9.825,112.717,10.136,112.717,10.511z"/>
	<path d="M120.836,29.065h-2.425l0.956-4.538c0.141-0.637,0.302-1.305,0.484-2.003h-0.043c-0.911,1.355-1.99,2.033-3.238,2.033
		c-0.98,0-1.744-0.34-2.295-1.022c-0.549-0.68-0.823-1.641-0.823-2.882c0-1.274,0.293-2.468,0.879-3.582
		c0.587-1.113,1.371-1.945,2.356-2.495c0.982-0.55,2.104-0.826,3.364-0.826c1.273,0,2.58,0.185,3.915,0.553L120.836,29.065z
		 M121.229,15.763c-0.463-0.127-0.929-0.191-1.4-0.191c-0.744,0-1.406,0.203-1.991,0.609c-0.583,0.406-1.053,1.011-1.408,1.816
		c-0.356,0.806-0.533,1.637-0.533,2.496c0,0.711,0.133,1.247,0.397,1.605c0.265,0.359,0.645,0.538,1.142,0.538
		c0.71,0,1.355-0.366,1.932-1.102c0.579-0.733,1-1.716,1.268-2.943L121.229,15.763z"/>
	<path d="M133.917,24.306h-2.415l0.313-2.183h-0.039c-0.545,0.764-1.153,1.361-1.822,1.791c-0.672,0.429-1.355,0.644-2.054,0.644
		c-0.852,0-1.504-0.244-1.952-0.73s-0.674-1.168-0.674-2.047c0-0.329,0.104-0.986,0.313-1.972l1.228-5.806h2.435l-1.258,5.927
		c-0.141,0.751-0.211,1.201-0.211,1.348c0,0.403,0.101,0.722,0.303,0.957c0.201,0.234,0.502,0.352,0.905,0.352
		c0.464,0,0.938-0.171,1.423-0.513c0.486-0.342,0.918-0.803,1.294-1.383c0.375-0.58,0.623-1.159,0.744-1.736l1.056-4.951h2.434
		l-1.477,6.923C134.198,22.173,134.018,23.299,133.917,24.306z"/>
	<path d="M146.464,16.538c0,1.241-0.577,2.155-1.732,2.742c-1.152,0.587-2.903,0.894-5.25,0.921l-0.021,0.11v0.202
		c0,0.697,0.207,1.24,0.623,1.625c0.416,0.386,0.996,0.579,1.739,0.579c0.511,0,1.056-0.092,1.638-0.276
		c0.58-0.184,1.11-0.42,1.595-0.709l-0.403,2.002c-1.013,0.55-2.129,0.825-3.352,0.825c-1.333,0-2.375-0.372-3.123-1.117
		c-0.747-0.744-1.123-1.794-1.123-3.149c0-1.167,0.258-2.258,0.767-3.274c0.509-1.017,1.22-1.815,2.134-2.395
		c0.911-0.58,1.91-0.871,2.997-0.871c1.08,0,1.935,0.255,2.565,0.765S146.464,15.7,146.464,16.538z M144.109,16.598
		c0-0.335-0.122-0.602-0.367-0.8s-0.582-0.296-1.012-0.296c-0.711,0-1.355,0.292-1.933,0.875c-0.576,0.583-0.955,1.302-1.136,2.153
		C142.626,18.53,144.109,17.886,144.109,16.598z"/>
</g>
<g>
	<path d="M14.182,63.461c-1.038,0.377-2.167,0.567-3.389,0.567c-2.153,0-4.048-0.475-5.687-1.425c-1.64-0.951-2.9-2.23-3.783-3.84
		C0.441,57.153,0,55.378,0,53.439c0-2.076,0.446-3.942,1.339-5.601c0.891-1.658,2.127-2.958,3.708-3.898
		c1.58-0.941,3.37-1.412,5.367-1.412c1.182,0,2.288,0.155,3.316,0.466s1.95,0.717,2.764,1.222l-1.135,2.647
		c-1.609-1.085-3.229-1.629-4.858-1.629c-1.357,0-2.613,0.359-3.767,1.077c-1.154,0.717-2.076,1.692-2.764,2.923
		c-0.688,1.231-1.033,2.585-1.033,4.059c0,1.513,0.315,2.879,0.946,4.102c0.63,1.222,1.531,2.178,2.706,2.866
		c1.173,0.688,2.526,1.033,4.057,1.033c1.881,0,3.521-0.533,4.917-1.601l1.193,2.531C16.077,62.67,15.219,63.083,14.182,63.461z"/>
	<path d="M24.771,52.857c0.572-0.504,1.178-0.892,1.818-1.164c0.64-0.271,1.202-0.417,1.688-0.437l-0.116,2.705
		c-0.873-0.038-1.664,0.136-2.371,0.524c-0.708,0.389-1.26,0.927-1.657,1.615c-0.398,0.688-0.597,1.421-0.597,2.197v5.497H20.83
		V51.751h2.415l0.203,2.852C23.757,53.943,24.199,53.361,24.771,52.857z"/>
	<path d="M43.84,51.751v12.043h-2.705v-1.978c-0.427,0.563-1.047,1.082-1.862,1.557s-1.736,0.713-2.764,0.713
		c-1.145,0-2.177-0.248-3.099-0.742c-0.921-0.495-1.648-1.217-2.181-2.167c-0.535-0.95-0.801-2.084-0.801-3.404
		c0-1.318,0.276-2.468,0.829-3.447c0.553-0.979,1.299-1.735,2.241-2.269c0.94-0.534,1.982-0.8,3.126-0.8
		c1.029,0,1.921,0.224,2.678,0.669c0.756,0.446,1.367,1.028,1.833,1.745l0.204-1.919H43.84z M39.782,61.018
		c0.707-0.553,1.159-1.305,1.353-2.255v-2.386c-0.233-0.853-0.718-1.546-1.456-2.08c-0.736-0.533-1.58-0.8-2.53-0.8
		c-0.717,0-1.381,0.174-1.993,0.523c-0.611,0.349-1.096,0.839-1.455,1.469c-0.359,0.631-0.538,1.343-0.538,2.138
		c0,0.776,0.184,1.484,0.553,2.125c0.368,0.639,0.862,1.149,1.484,1.527c0.62,0.378,1.298,0.567,2.036,0.567
		C38.226,61.846,39.074,61.57,39.782,61.018z"/>
	<path d="M60.015,51.751l-6.429,12.393h-0.145L46.75,51.751h3.229l3.636,7.68l3.375-7.68H60.015z"/>
	<path d="M74.793,51.751v12.043h-2.707v-1.978c-0.426,0.563-1.047,1.082-1.862,1.557c-0.815,0.475-1.735,0.713-2.763,0.713
		c-1.145,0-2.177-0.248-3.099-0.742c-0.92-0.495-1.648-1.217-2.182-2.167c-0.533-0.95-0.799-2.084-0.799-3.404
		c0-1.318,0.276-2.468,0.828-3.447c0.553-0.979,1.3-1.735,2.24-2.269c0.94-0.534,1.982-0.8,3.127-0.8
		c1.029,0,1.921,0.224,2.678,0.669c0.756,0.446,1.367,1.028,1.832,1.745l0.204-1.919H74.793z M70.735,61.018
		c0.707-0.553,1.158-1.305,1.352-2.255v-2.386c-0.232-0.853-0.718-1.546-1.454-2.08c-0.737-0.533-1.582-0.8-2.531-0.8
		c-0.719,0-1.383,0.174-1.994,0.523c-0.609,0.349-1.095,0.839-1.455,1.469c-0.359,0.631-0.538,1.343-0.538,2.138
		c0,0.776,0.184,1.484,0.553,2.125c0.368,0.639,0.863,1.149,1.484,1.527c0.619,0.378,1.297,0.567,2.035,0.567
		C69.179,61.846,70.026,61.57,70.735,61.018z"/>
	<path d="M89.773,52.29c0.737,0.669,1.115,1.537,1.135,2.604v8.901h-2.733v-7.97c-0.038-0.679-0.245-1.211-0.611-1.6
		c-0.368-0.387-0.921-0.591-1.658-0.611c-1.067,0-1.949,0.427-2.647,1.28c-0.697,0.854-1.048,1.939-1.048,3.258v5.643h-2.705V51.751
		h2.443l0.174,2.328c0.427-0.873,1.068-1.557,1.919-2.051c0.855-0.494,1.834-0.742,2.939-0.742
		C88.106,51.286,89.037,51.62,89.773,52.29z"/>
	<path d="M103.432,63.708c-0.745,0.251-1.507,0.379-2.283,0.379c-1.299,0-2.449-0.262-3.446-0.786
		c-0.999-0.523-1.774-1.265-2.326-2.225c-0.555-0.96-0.831-2.07-0.831-3.331c0-1.241,0.292-2.342,0.873-3.302
		s1.357-1.703,2.328-2.226c0.97-0.523,2.015-0.786,3.141-0.786c1.844,0,3.365,0.504,4.568,1.514l-1.368,1.773
		c-0.387-0.291-0.834-0.537-1.336-0.741c-0.506-0.204-1.049-0.306-1.631-0.306c-0.718,0-1.371,0.18-1.964,0.539
		c-0.593,0.359-1.057,0.849-1.396,1.469c-0.339,0.622-0.51,1.31-0.51,2.066c0,0.756,0.18,1.445,0.539,2.065
		c0.359,0.621,0.849,1.116,1.469,1.484c0.621,0.369,1.329,0.553,2.125,0.553c0.988,0,1.852-0.291,2.587-0.872l1.397,1.687
		C104.823,63.107,104.179,63.456,103.432,63.708z"/>
	<path d="M119.128,52.29c0.736,0.669,1.114,1.537,1.135,2.604v8.901h-2.735v-7.97c-0.039-0.679-0.243-1.211-0.611-1.6
		c-0.368-0.387-0.922-0.591-1.658-0.611c-0.697,0-1.328,0.194-1.892,0.582c-0.563,0.388-1.002,0.931-1.322,1.629
		c-0.319,0.698-0.481,1.475-0.481,2.327v5.643h-2.704V41.249h2.647v12.684c0.446-0.795,1.091-1.435,1.934-1.92
		c0.845-0.485,1.809-0.728,2.895-0.728C117.459,51.286,118.39,51.62,119.128,52.29z"/>
	<path d="M124.758,54.413c0.57-0.979,1.366-1.75,2.383-2.313c1.021-0.563,2.168-0.844,3.447-0.844c1.281,0,2.42,0.281,3.419,0.844
		c0.999,0.563,1.774,1.328,2.329,2.298c0.553,0.97,0.826,2.056,0.826,3.257c0,1.203-0.273,2.294-0.826,3.273
		c-0.555,0.98-1.335,1.751-2.345,2.313c-1.007,0.563-2.161,0.844-3.461,0.844c-1.26,0-2.396-0.268-3.402-0.8
		c-1.01-0.533-1.8-1.285-2.37-2.255c-0.573-0.97-0.86-2.094-0.86-3.375C123.897,56.475,124.185,55.393,124.758,54.413z
		 M127.141,59.78c0.341,0.641,0.806,1.146,1.397,1.513c0.591,0.369,1.245,0.553,1.965,0.553c1.123,0,2.054-0.397,2.792-1.193
		c0.735-0.795,1.105-1.784,1.105-2.966c0-1.183-0.37-2.178-1.105-2.982c-0.738-0.805-1.669-1.208-2.792-1.208
		c-0.737,0-1.397,0.188-1.979,0.566c-0.582,0.379-1.043,0.888-1.384,1.528c-0.338,0.64-0.509,1.338-0.509,2.095
		C126.632,58.442,126.803,59.141,127.141,59.78z"/>
	<path d="M141.092,46.341c0.331-0.291,0.706-0.437,1.134-0.437c0.426,0,0.801,0.146,1.121,0.437c0.319,0.291,0.478,0.65,0.478,1.076
		c0,0.426-0.158,0.785-0.478,1.076c-0.32,0.291-0.695,0.437-1.121,0.437c-0.428,0-0.803-0.146-1.134-0.437
		c-0.33-0.291-0.494-0.65-0.494-1.076C140.598,46.991,140.762,46.631,141.092,46.341z M143.505,51.751v12.043h-2.704V51.751H143.505
		z"/>
	<path d="M149.075,63.592c-0.807-0.311-1.458-0.766-1.963-1.368l1.164-1.571c0.484,0.466,0.995,0.825,1.527,1.076
		c0.533,0.252,1.063,0.379,1.585,0.379c0.64,0,1.164-0.126,1.571-0.379c0.408-0.251,0.61-0.64,0.61-1.163
		c0-0.407-0.126-0.737-0.378-0.989c-0.251-0.252-0.538-0.437-0.857-0.554c-0.319-0.115-0.859-0.29-1.615-0.522
		c-2.055-0.66-3.084-1.833-3.084-3.521c0-1.009,0.373-1.871,1.12-2.589c0.745-0.717,1.789-1.076,3.128-1.076
		c0.854,0,1.61,0.107,2.269,0.319c0.66,0.214,1.271,0.553,1.832,1.019l-1.075,1.658c-0.31-0.33-0.703-0.591-1.177-0.786
		c-0.478-0.193-0.929-0.301-1.354-0.32c-0.543,0-1.009,0.13-1.396,0.392c-0.389,0.262-0.581,0.617-0.581,1.063
		c0,0.368,0.124,0.673,0.377,0.916c0.253,0.243,0.514,0.417,0.784,0.524c0.273,0.107,0.805,0.286,1.602,0.538
		c0.988,0.33,1.761,0.756,2.313,1.28c0.553,0.523,0.829,1.232,0.829,2.123c0,1.164-0.409,2.125-1.224,2.88
		c-0.813,0.758-1.968,1.135-3.46,1.135C150.729,64.057,149.88,63.901,149.075,63.592z"/>
	<path d="M168.668,60.711l1.254,2.007c-0.642,0.427-1.336,0.762-2.082,1.003c-0.748,0.243-1.468,0.364-2.167,0.364
		c-1.338,0-2.507-0.277-3.506-0.83s-1.769-1.313-2.313-2.283c-0.544-0.971-0.813-2.066-0.813-3.288c0-1.183,0.294-2.265,0.885-3.244
		c0.593-0.979,1.403-1.755,2.431-2.328c1.028-0.571,2.152-0.858,3.375-0.858c1.571,0,2.884,0.461,3.942,1.381
		c1.056,0.922,1.778,2.207,2.168,3.855l-9.544,3.345c0.35,0.602,0.818,1.072,1.411,1.412c0.592,0.34,1.265,0.509,2.022,0.509
		C166.738,61.759,167.719,61.41,168.668,60.711z M162.792,54.573c-0.717,0.776-1.075,1.766-1.075,2.968
		c0,0.29,0.01,0.514,0.027,0.669l7.013-2.588c-0.292-0.661-0.704-1.194-1.236-1.601c-0.534-0.407-1.197-0.611-1.993-0.611
		C164.421,53.41,163.511,53.798,162.792,54.573z"/>
</g>
<g>
	<path d="M82.725,32.932v8.924h-1.068v-8.924H82.725z"/>
	<path d="M89.484,37.089v4.767h-1.069v-0.783c-0.169,0.223-0.417,0.427-0.737,0.616c-0.322,0.189-0.688,0.282-1.094,0.282
		c-0.454,0-0.862-0.098-1.226-0.294c-0.365-0.196-0.653-0.481-0.864-0.857c-0.213-0.377-0.317-0.826-0.317-1.348
		c0-0.521,0.11-0.977,0.327-1.364c0.219-0.387,0.516-0.687,0.887-0.898c0.373-0.21,0.786-0.316,1.239-0.316
		c0.406,0,0.759,0.088,1.06,0.265c0.3,0.176,0.541,0.407,0.726,0.691l0.08-0.76H89.484z M87.879,40.756
		c0.28-0.219,0.458-0.517,0.536-0.894v-0.943c-0.093-0.338-0.283-0.613-0.578-0.824c-0.29-0.211-0.624-0.316-1-0.316
		c-0.284,0-0.547,0.07-0.788,0.208s-0.436,0.332-0.576,0.581c-0.144,0.25-0.213,0.532-0.213,0.847c0,0.308,0.072,0.587,0.22,0.841
		c0.146,0.253,0.341,0.455,0.586,0.604c0.246,0.15,0.513,0.224,0.807,0.224C87.263,41.084,87.6,40.974,87.879,40.756z"/>
</g>
<g>
	<path fill-rule="evenodd" fill="#010101" d="M170.422,0c0.301,0.096,0.611,0.109,0.921,0.157c1.023,0.158,2.052,0.308,3.075,0.46
		c0.072,0.011,0.145,0.022,0.218,0.026c0.458,0.02,0.847,0.219,1.235,0.449c2.232,1.317,4.475,2.614,6.704,3.933
		c0.744,0.437,1.441,0.938,2.126,1.462c0.792,0.608,1.389,1.374,1.883,2.229c0.904,1.557,1.641,3.192,2.316,4.856
		c0.039,0.098,0.088,0.189,0.147,0.276c0.256,0.373,0.513,0.748,0.766,1.123c0.457,0.674,0.88,1.367,1.145,2.145
		c0.238,0.697,0.71,1.221,1.263,1.677c0.442,0.363,0.898,0.711,1.341,1.074c0.377,0.311,0.705,0.667,0.98,1.075
		c0.713,1.047,1.416,2.102,2.104,3.166c1.001,1.56,1.683,3.271,2.37,4.977c0.17,0.418,0.274,0.879,0.519,1.246
		c0.245,0.364,0.626,0.636,0.947,0.947c0.464,0.448,0.928,0.896,1.39,1.346c0.053,0.05,0.104,0.104,0.134,0.167
		c0.593,1.305,1.181,2.613,1.609,3.984c0.127,0.405,0.218,0.812,0.179,1.238c-0.013,0.174,0.039,0.335,0.111,0.493
		c0.788,1.737,1.493,3.507,1.985,5.352c0.451,1.696,0.859,3.405,1.11,5.146c0.141,0.982,0.259,1.967,0.442,2.94
		c0.158,0.849,0.417,1.679,0.594,2.524c0.138,0.649,0.372,1.249,0.699,1.822c0.76,1.333,1.199,2.786,1.577,4.26
		c0.154,0.602,0.316,1.203,0.468,1.806c0.023,0.091,0.058,0.174,0.098,0.256c0.218,0.434,0.418,0.878,0.659,1.298
		c0.321,0.562,0.494,1.165,0.593,1.797c0.043,0.286,0.107,0.567,0.158,0.851c0.016,0.081,0.062,0.142,0.104,0.209
		c0.386,0.586,0.802,1.159,1.007,1.838c0.175,0.571,0.262,1.164,0.348,1.754c0.171,1.179,0.426,2.331,0.987,3.396
		c0.197,0.37,0.368,0.754,0.553,1.13c0.02,0.042,0.019,0.105,0.082,0.118c0,0.026,0,0.053,0,0.08
		c-0.619,0.162-1.24,0.321-1.88,0.409c-0.41,0.057-0.813,0.025-1.212-0.07c-0.58-0.138-1.15-0.312-1.712-0.51
		c-0.113-0.039-0.152-0.103-0.163-0.21c-0.054-0.517-0.113-1.033-0.169-1.549c-0.013-0.146-0.048-0.276-0.161-0.387
		c-0.115-0.108-0.209-0.238-0.298-0.368c-0.33-0.478-0.335-0.656-0.003-1.138c0.108-0.155,0.107-0.256-0.01-0.405
		c-0.356-0.456-0.691-0.927-1.039-1.39c-0.062-0.081-0.092-0.152-0.073-0.266c0.054-0.356,0.084-0.717,0.123-1.076
		c0.079-0.744-0.185-1.389-0.573-2.003c-0.422-0.668-0.911-1.288-1.422-1.888c-0.082-0.098-0.088-0.157,0.013-0.228
		c0.177-0.119,0.177-0.259,0.111-0.454c-0.678-2.105-1.361-4.209-2.188-6.262c-0.342-0.848-0.723-1.676-1.246-2.425
		c-0.282-0.403-0.443-0.835-0.541-1.311c-0.167-0.835-0.383-1.659-0.63-2.474c-0.206-0.673-0.475-1.32-0.825-1.929
		c-1.012-1.761-1.81-3.618-2.531-5.512c-0.135-0.36-0.29-0.714-0.428-1.075c-0.039-0.104-0.099-0.157-0.198-0.186
		c-0.202-0.058-0.397-0.14-0.602-0.183c-0.615-0.129-1.146,0.016-1.576,0.5c-0.465,0.52-0.801,1.112-1.11,1.734
		c-0.591,1.197-1.416,2.255-2.1,3.396c-1.245,2.075-2.478,4.158-3.566,6.321c-0.324,0.65-0.584,1.331-0.843,2.009
		c-0.059,0.154-0.144,0.272-0.263,0.382c-0.44,0.406-0.881,0.814-1.249,1.289c-0.458,0.588-0.705,1.281-0.939,1.979
		c-0.294,0.869-0.554,1.75-1.112,2.501c-0.428,0.575-0.857,1.147-1.282,1.724c-0.45,0.607-0.925,1.197-1.309,1.85
		c-0.044,0.075-0.078,0.151-0.122,0.226c-0.051,0.087-0.054,0.149,0.03,0.236c0.185,0.192,0.205,0.443,0.131,0.684
		c-0.278,0.915-0.697,1.744-1.525,2.291c-0.184,0.123-0.236,0.25-0.178,0.447c0.014,0.043,0.022,0.09,0.028,0.135
		c0.054,0.586-0.05,0.753-0.604,0.967c-0.068,0.026-0.134,0.059-0.205,0.068c-0.137,0.02-0.154,0.089-0.132,0.215
		c0.071,0.381,0.132,0.764,0.078,1.153c-0.013,0.064-0.022,0.13-0.038,0.193c-0.109,0.376-0.299,0.464-0.617,0.253
		c-0.176-0.115-0.22-0.085-0.299,0.096c-0.307,0.722-0.464,1.472-0.479,2.256c-0.009,0.367-0.018,0.363-0.372,0.461
		c-0.373,0.103-0.749,0.192-1.131,0.249c-0.415,0.063-0.811,0.014-1.189-0.17c-0.378-0.185-0.741-0.389-1.098-0.617
		c-0.109-0.07-0.125-0.127-0.076-0.25c0.452-1.15,0.897-2.305,1.345-3.459c-0.34-0.088-0.384-0.192-0.222-0.507
		c0.125-0.237,0.309-0.425,0.496-0.61c0.081-0.082,0.14-0.165,0.175-0.276c0.19-0.591,0.391-1.18,0.586-1.769
		c0.037-0.114,0.091-0.214,0.17-0.306c0.418-0.474,0.827-0.955,1.243-1.431c0.073-0.082,0.098-0.14,0.036-0.252
		c-0.188-0.337,0.003-0.959,0.337-1.15c0.056-0.032,0.131-0.077,0.184-0.063c0.215,0.061,0.254-0.091,0.323-0.233
		c0.904-1.897,1.792-3.806,2.761-5.672c0.484-0.93,1.02-1.833,1.525-2.752c1.019-1.848,1.814-3.787,2.429-5.806
		c0.801-2.632,1.514-5.287,2.202-7.949c0.033-0.128,0.075-0.25,0.134-0.368c0.372-0.766,0.739-1.534,1.121-2.295
		c0.103-0.202,0-0.385,0.002-0.577c0-0.057-0.063-0.048-0.092-0.026c-0.351,0.271-0.742,0.136-1.118,0.101
		c-0.98-0.091-1.958-0.215-2.936-0.336c-1.353-0.169-2.666-0.503-3.968-0.886c-1.11-0.327-2.217-0.672-3.318-1.029
		c-0.091-0.028-0.187-0.044-0.203-0.178c-0.078-0.652-0.175-1.301-0.207-1.958c-0.037-0.799,0.145-1.564,0.336-2.33
		c0.2-0.8,0.448-1.586,0.716-2.367c0.128-0.375,0.12-0.764,0.175-1.145c0.177-1.287,0.372-2.569,0.825-3.797
		c0.252-0.685,0.732-1.206,1.226-1.719c0.145-0.151,0.284-0.308,0.433-0.468c-0.207-0.068-0.438-0.108-0.678-0.083
		c-0.17,0.018-0.312,0.101-0.397,0.257c-0.179,0.335-0.475,0.405-0.805,0.313c-0.716-0.199-1.372-0.036-1.982,0.319
		c-0.971,0.563-1.863,0.326-2.744-0.196c-0.228-0.132-0.208-0.348-0.216-0.549c-0.031-0.655,0.07-1.299,0.172-1.942
		c0.025-0.156,0.054-0.31,0.084-0.463c0.009-0.048,0.012-0.087-0.015-0.131c-0.426-0.668-0.452-1.425-0.484-2.182
		c-0.012-0.282-0.032-0.565-0.059-0.846c-0.014-0.114,0.003-0.224,0.022-0.333c0.075-0.392-0.003-0.788,0.024-1.181
		c0.067-0.944,0.372-1.832,0.646-2.728c0.15-0.476,0.398-0.821,0.821-1.091c0.57-0.363,1.115-0.767,1.733-1.048
		c0.925-0.42,1.903-0.532,2.906-0.464c0.504,0.034,0.998,0.138,1.457,0.374c0.167,0.089,0.312,0.215,0.455,0.339
		c0.943,0.812,1.505,1.846,1.827,3.037c0.328,1.215,0.632,2.435,0.854,3.674c0.009,0.045,0.015,0.093,0.009,0.137
		c-0.027,0.213-0.028,0.213,0.156,0.396c0.362-0.7,0.735-1.393,1.077-2.1c0.092-0.189,0.076-0.43-0.004-0.635
		c-0.893-2.229-1.793-4.458-2.688-6.687c-0.037-0.091-0.105-0.145-0.176-0.204c-1.115-0.921-2.271-1.797-3.351-2.76
		c-1.035-0.926-2.037-1.888-3.055-2.836c-0.07-0.067-0.147-0.127-0.233-0.174c-0.793-0.425-1.584-0.852-2.375-1.276
		c-0.066-0.036-0.132-0.078-0.219-0.074c-0.381,0.021-0.762,0.032-1.143,0.05c-1.08,0.051-2.099,0.362-3.11,0.713
		c-0.257,0.088-0.518,0.177-0.826,0.284c0.24-0.387,0.452-0.728,0.666-1.069c-0.011-0.015-0.021-0.029-0.029-0.045
		c-0.495,0.312-0.993,0.623-1.537,0.965c0.362-0.801,0.704-1.555,1.047-2.316c-0.923-0.098-1.83-0.195-2.735-0.29
		c0-0.009,0-0.017,0.002-0.026c0.736-0.055,1.476-0.111,2.215-0.166c0.379-0.029,0.759-0.055,1.14-0.082
		c0.027-0.001,0.052-0.008,0.059-0.039C170.002,0,170.214,0,170.422,0z"/>
</g>
</svg>
